<?xml version="1.0" encoding="UTF-8"?>
<svg version="1.1" viewBox="0 0 1600 528" xmlns="http://www.w3.org/2000/svg">
<path transform="translate(410,207)" d="m0 0c3.06 3.72 5.16 7.87 7.38 12.1 0.605 1.15 0.605 1.15 1.22 2.33 2.39 4.56 4.71 9.14 6.99 13.8 1.92 3.81 3.92 7.58 5.91 11.4 4.06 7.7 8.1 15.4 12.1 23.1 0.514 0.984 1.03 1.97 1.56 2.98 5.52 10.6 10.8 21.3 16.1 32 1.51 3.05 3.03 6.1 4.54 9.14 0.765 1.54 1.53 3.08 2.29 4.62 4.44 8.98 9.04 17.8 14.1 26.5 2.43 4.25 4.63 8.59 6.78 13 0.771 1.56 1.54 3.12 2.31 4.68 0.621 1.26 0.621 1.26 1.25 2.55 6.11 12.4 12.4 24.6 18.7 36.9 1.19 2.31 2.38 4.61 3.57 6.92 0.73 1.42 1.46 2.83 2.19 4.25 0.666 1.29 1.33 2.59 1.99 3.88 0.706 1.38 1.42 2.75 2.14 4.12 0.367 0.707 0.734 1.41 1.11 2.14 0.335 0.637 0.669 1.27 1.01 1.93 0.733 1.77 0.733 1.77 0.733 4.77-7.35 0.186-14.7 0.328-22 0.414-3.41 0.0417-6.82 0.0982-10.2 0.189-3.92 0.104-7.85 0.142-11.8 0.178-1.83 0.0619-1.83 0.0619-3.7 0.125-8.26 0.00437-8.26 0.00437-11.1-2.56-1.32-2.07-2.28-4.07-3.18-6.35-0.718-1.34-0.718-1.34-1.45-2.71-0.384-0.791-0.767-1.58-1.16-2.4-0.666-1.36-0.666-1.36-1.35-2.74-0.891-1.83-1.78-3.67-2.67-5.5-3.83-7.79-8.03-15.1-12.4-22.7h-136l-7 14c-1.7 3.26-3.4 6.51-5.12 9.75-3.09 5.84-6.15 11.7-9.04 17.6-0.84 1.62-0.84 1.62-1.84 2.62-1.75 0.0937-3.5 0.117-5.25 0.114-1.12-7.55e-5 -2.24-1.51e-4 -3.4-2.29e-4 -1.83-0.00774-1.83-0.00774-3.7-0.0156-1.24-0.00141-2.48-0.00283-3.76-0.00429-3.31-0.00466-6.61-0.0137-9.92-0.0247-3.37-0.0102-6.74-0.0148-10.1-0.0198-6.62-0.0111-13.2-0.0278-19.9-0.0488 0.764-4.24 2.08-7.53 4.03-11.4 0.308-0.614 0.616-1.23 0.933-1.86 0.987-1.96 1.98-3.92 2.98-5.88 0.634-1.26 1.27-2.52 1.9-3.79 4-7.94 8.11-15.8 12.3-23.7 4.92-9.32 9.72-18.7 14.5-28.1 0.918-1.79 1.84-3.58 2.75-5.38 2.21-4.31 4.41-8.62 6.62-12.9-1.06 0.732-2.13 1.46-3.22 2.22-1.43 0.982-2.86 1.96-4.28 2.95-1.05 0.719-1.05 0.719-2.11 1.45-4.18 2.87-8.36 5.74-12.6 8.6-6.35 4.33-12.6 8.77-18.8 13.3-7.59 5.51-15.3 10.9-23 16.2-2 1.37-4 2.75-6 4.12-9.95 6.87-20 13.6-30.1 20.3-5.82 3.85-11.5 7.81-17.2 11.9-4.93 3.54-9.93 6.96-14.9 10.4-7.27 4.94-14.4 10-21.5 15.2-4.98 3.64-10.1 7.1-15.2 10.5v-3c2.02-1.73 2.02-1.73 4.81-3.62 4.94-3.46 9.6-7.11 14.2-11 3.26-2.67 6.56-5.26 9.88-7.85 5.52-4.31 10.9-8.74 16.3-13.2 2.46-2.06 4.95-4.07 7.46-6.07 4.57-3.63 9.07-7.34 13.6-11.1 5.89-4.87 11.8-9.65 17.9-14.4 7.44-5.81 14.7-11.8 22-17.9 4.35-3.63 8.74-7.22 13.2-10.7 2.12-1.68 4.22-3.38 6.33-5.08 6.5-5.25 13-10.3 19.8-15.2 4.12-3.03 8.04-6.31 12-9.58 3.19-2.63 6.4-5.23 9.61-7.83 4.63-3.76 9.26-7.53 13.9-11.3 3.25-2.67 6.52-5.31 9.81-7.94 4.44-3.54 8.85-7.11 13.2-10.7 0.694-0.564 1.39-1.13 2.1-1.71 3.87-3.15 7.73-6.31 11.6-9.48 4.04-3.31 8.13-6.54 12.2-9.75 5.3-4.13 10.5-8.41 15.6-12.8 3.72-3.17 7.5-6.21 11.4-9.18 2.4-1.85 4.75-3.76 7.11-5.68 3.21-2.58 6.46-5 9.88-7.31 5.3-3.65 10.1-7.78 15-12 5.21-4.47 10.5-8.92 16.2-12.7zm-36 47c-0.475 1-0.475 1-0.959 2.03-10.7 22.5-10.7 22.5-15.8 32-0.362 0.675-0.724 1.35-1.1 2.05-0.356 0.663-0.712 1.33-1.08 2.01-5.58 10.4-10.7 21-15.6 31.8-0.446 0.97-0.892 1.94-1.35 2.94-0.615 1.36-0.615 1.36-1.24 2.74-0.368 0.809-0.736 1.62-1.12 2.45-0.914 1.95-0.914 1.95-0.791 3.99h81c-2.47-7.51-2.47-7.51-5.6-14.5-0.494-0.989-0.989-1.98-1.5-3-0.792-1.56-0.792-1.56-1.6-3.15-0.831-1.66-0.831-1.66-1.68-3.34-1.76-3.51-3.54-7.02-5.31-10.5-1.17-2.33-2.34-4.66-3.51-6.99-2.25-4.48-4.5-8.95-6.76-13.4-1.86-3.69-3.71-7.38-5.55-11.1-0.551-1.11-0.551-1.11-1.11-2.24-0.651-1.31-1.3-2.62-1.95-3.94-1.67-3.36-3.32-6.68-5.43-9.78h-2z" fill="#000100"/>
<path transform="translate(313,69)" d="m0 0v155c7.03-3.84 7.03-3.84 13.6-8.13 0.781-0.554 1.56-1.11 2.37-1.68 0.808-0.579 1.62-1.16 2.45-1.75 8.72-6.18 17.6-12.2 26.5-18.1 3.31-2.19 6.61-4.38 9.91-6.57 0.613-0.408 1.23-0.815 1.86-1.24 5.07-3.38 10.1-6.86 15.1-10.3 3.25-2.24 6.53-4.44 9.82-6.62 8.78-5.82 17.5-11.8 26.2-17.7 1.16-0.789 2.32-1.58 3.48-2.37 0.563-0.383 1.13-0.766 1.71-1.16 4.92-3.34 9.87-6.63 14.8-9.91 2.11-1.33 2.11-1.33 3.24-2.52l1-42h85v17c-1.26-0.0325-2.52-0.0651-3.82-0.0986-4.74-0.106-9.47-0.131-14.2-0.133-2.04-0.0119-4.08-0.0449-6.12-0.101-15.1-0.411-15.1-0.411-27.8 7.04-1.02 1.03-2.03 2.07-3.03 3.13-3.04 3.17-3.04 3.17-11 9.17l-1 21h57v18h-57v39h67v18h-85v-79c-8.77 6.34-8.77 6.34-16.9 13.2-3.19 2.82-6.5 5.48-9.8 8.16-2.46 2-4.91 4.03-7.35 6.06-6.98 5.8-14 11.5-21.4 16.7-4.68 3.41-9.09 7.14-13.5 10.8-6.35 5.31-12.7 10.6-19.2 15.8-8.57 6.85-17.1 13.7-25.4 20.9-4.94 4.22-10 8.26-15.1 12.2-5.17 4.03-10.2 8.25-15.1 12.5-3.76 3.21-7.59 6.33-11.4 9.45-1.77 1.44-3.54 2.89-5.3 4.34-8.78 7.23-17.7 14.3-26.7 21.2-9.9 7.69-19.6 15.7-29.1 23.8-3.85 3.27-7.76 6.45-11.7 9.59-2.87 2.29-5.73 4.59-8.58 6.9-1.39 1.13-2.78 2.25-4.17 3.37-3.22 2.61-6.4 5.24-9.49 8.01-0.529 0.467-1.06 0.934-1.6 1.41-1.41 1.25-2.81 2.52-4.2 3.8-4.63 2.92-8.44 2-13.6 0.918-1.38-0.38-2.75-0.777-4.12-1.19-0.735-0.22-1.47-0.44-2.23-0.667-12-3.81-22.3-10-31.8-18.3-0.972-0.773-1.94-1.55-2.95-2.34-3.21-2.68-5.8-5.67-8.37-8.97-0.466-0.594-0.933-1.19-1.41-1.8-5.22-6.84-9.28-14.3-13.3-21.9 2.58-3.04 5.46-4.3 9.07-5.89 0.597-0.266 1.19-0.532 1.81-0.805 1.93-0.858 3.87-1.71 5.8-2.55 1.32-0.584 2.65-1.17 3.97-1.75 1.97-0.868 3.93-1.73 5.9-2.6 3.61-1.58 7.2-3.19 10.8-4.84 1.1-0.502 1.1-0.502 2.22-1.01 1.86-0.849 3.71-1.71 5.57-2.56 2.87-0.977 2.87-0.977 5.11-0.949 2.6 1.43 3.21 3.24 4.45 5.91 5.62 10.9 13.5 18.7 25 23.1 13.3 4.14 28.6 2.59 41-3.59 1.44-0.801 2.88-1.61 4.31-2.44 0.708-0.298 1.42-0.596 2.14-0.902 2.33-1.38 2.77-2.65 3.86-5.1 0.897-1.14 1.82-2.26 2.75-3.38 9.94-13.1 12.7-29.1 12.5-45.1-0.0107-1.41-0.0198-2.82-0.0275-4.24-0.0186-3.02-0.0457-6.03-0.0788-9.05-0.0502-4.78-0.0673-9.56-0.0776-14.3-0.00395-1.64-0.00794-3.29-0.012-4.93-0.00201-0.823-0.00401-1.65-0.00608-2.49-0.0299-11.1-0.0879-22.2-0.208-33.3-0.0808-7.52-0.119-15-0.108-22.6 0.0036-3.97-0.0146-7.94-0.0862-11.9-0.474-27.3-0.474-27.3 5.55-33.6 2.44-2.01 5.04-3.54 7.81-5.05 1.34-1.13 2.67-2.29 3.94-3.5 3.92-3.4 7.89-6.74 11.8-10.1 5.33-4.5 10.6-9.04 15.9-13.6 0.532-0.456 1.06-0.912 1.61-1.38 1.21-1.04 2.41-2.08 3.61-3.13 0.633-0.55 1.27-1.1 1.92-1.67 0.578-0.506 1.16-1.01 1.75-1.53 1.4-1.11 1.4-1.11 2.4-1.11zm150 42v14c7.12-3.73 13.7-7.97 20-13v-1h-20z" fill="#000100"/>
<path transform="translate(851,289)" d="m0 0c17 0 17 0 21 3.64 1.41 2.4 1.41 2.4 2.7 5.05 0.513 0.905 1.03 1.81 1.56 2.74 1.08 1.9 2.13 3.81 3.16 5.73 2.39 4.41 5.06 8.65 7.73 12.9 0.524 0.853 1.05 1.71 1.59 2.58 4.92 8 10.1 15.8 15.4 23.6 5.76 8.57 11.3 17.2 16.7 26.1 0.478 0.786 0.955 1.57 1.45 2.38 0.404 0.671 0.808 1.34 1.22 2.03 2.04 3.18 4.28 6.22 6.48 9.29l1-96h18v132c-16 0-16 0-19.6-3.31-0.854-1.54-1.66-3.11-2.44-4.69-1.09-1.74-2.19-3.47-3.31-5.19-0.886-1.41-0.886-1.41-1.79-2.86-1.95-3.04-4-6-6.09-8.96-5.34-7.61-10.2-15.5-15.2-23.4-10-16-20.2-31.9-30.6-47.6l-1 96h-18v-132z" fill="#000100"/>
<path transform="translate(595,93)" d="m0 0c69.4 0 69.4 0 80 9 8.88 9.16 12.1 19.4 12 32-0.681 10.7-5.24 20.3-13.1 27.6-3.38 2.6-7.49 5.44-11.9 5.44 4.54 9.2 9.19 18.3 13.9 27.4 0.509 0.974 1.02 1.95 1.54 2.95 2.41 4.61 4.83 9.21 7.29 13.8 0.421 0.787 0.842 1.57 1.28 2.39 0.784 1.46 1.57 2.93 2.36 4.38 2.59 4.83 2.59 4.83 2.59 7.05h-21c-4.93-9.31-9.83-18.6-14.6-28-0.404-0.787-0.808-1.57-1.22-2.39-2.05-4.01-4.11-8.01-6.16-12-0.766-1.5-1.53-2.99-2.3-4.49-0.357-0.7-0.714-1.4-1.08-2.12-1.5-3.19-1.5-3.19-3.6-5.96h-27l-1 55h-18v-132zm18 17c-0.0246 5.82-0.0428 11.6-0.0549 17.5-0.00504 1.98-0.0119 3.96-0.0205 5.95-0.0121 2.84-0.0178 5.68-0.0222 8.53-0.00516 0.892-0.0103 1.78-0.0156 2.7-1.95e-4 2.12 0.0512 4.24 0.113 6.36 1.99 1.99 5.93 1.19 8.66 1.2 1.16 0.00855 1.16 0.00855 2.35 0.0173 1.65 0.00947 3.3 0.016 4.95 0.0198 2.5 0.00962 5 0.0406 7.5 0.0723 13.1 0.359 13.1 0.359 24.7-4.96 0.434-0.57 0.869-1.14 1.32-1.73 0.452-0.565 0.905-1.13 1.37-1.71 3.94-6.33 3.89-12.6 3.19-19.9-1.5-5.63-4.45-8.89-9.22-12.1-3.2-1.64-6.25-2.04-9.82-2.02-0.781 7.55e-5 -1.56 1.51e-4 -2.37 2.29e-4 -0.832 0.00516-1.66 0.0103-2.52 0.0156-0.86 0.00141-1.72 0.00283-2.61 0.00429-2.74 0.00559-5.48 0.0181-8.22 0.0309-1.86 0.00502-3.72 0.00958-5.58 0.0137-4.56 0.011-9.11 0.0283-13.7 0.0488z" fill="#000100"/>
<path transform="translate(1071 101)" d="m0 0c9.45 8.54 16.4 19.7 17.3 32.7 0.0857 3.27 0.109 6.54 0.106 9.82 0.00429 1.2 0.00857 2.41 0.013 3.65 0.00573 2.54 0.00626 5.08 0.00191 7.61-0.00315 3.85 0.0203 7.71 0.0457 11.6 0.00227 2.48 0.00298 4.95 0.00195 7.43 0.00921 1.14 0.0184 2.28 0.0279 3.45-0.0812 14.3-3.71 26.9-13.5 37.5-10.8 10.1-23.4 12.8-37.6 12.4-12.7-0.568-22.8-5.31-31.6-14.5-11.9-14.4-12.1-32.2-12-50 0.0161-3.29 8.93e-5 -6.58-0.019-9.87-0.0184-17.3 1.04-34.9 13.6-48.3 17.2-15 45.2-18.1 63.7-3.49zm-51.5 18c-4.38 5.9-6.53 11.7-6.61 19.1-0.0128 1.03-0.0257 2.05-0.0389 3.11-0.00739 1.1-0.0148 2.21-0.0224 3.35-0.00807 1.14-0.0161 2.29-0.0245 3.47-0.0138 2.43-0.0246 4.85-0.0324 7.28-0.0115 2.47-0.0319 4.94-0.0615 7.4-0.0429 3.58-0.0589 7.15-0.0691 10.7-0.0175 1.09-0.035 2.18-0.0531 3.3 0.0267 9.57 2.03 18.6 8.76 25.8 7.88 6.59 16.8 7.16 26.7 6.43 7.2-1.45 11.5-4.94 16.3-10.4 4.9-7.56 5.15-14.5 5.12-23.3 0.00524-1.21 0.0105-2.42 0.0159-3.66 0.0064-2.55 0.00511-5.09-0.00343-7.64-0.0085-3.88 0.0203-7.75 0.052-11.6 0.00161-2.48 0.00103-4.97-0.00195-7.45 0.0112-1.15 0.0225-2.3 0.034-3.48-0.0821-9.58-2.16-17.8-8.82-25-6.37-5.48-13.8-6.86-22-6.74-7.68 0.763-14.2 3.58-19.3 9.34z" fill="#000100"/>
<path transform="translate(1456 287)" d="m0 0c13.3-0.564 25.9 3.42 35.9 12.2 11.2 11.7 14 25 14 40.7 0.00429 1.2 0.00857 2.4 0.013 3.64 0.00572 2.53 0.00626 5.06 0.00191 7.6-0.00316 3.84 0.0203 7.69 0.0457 11.5 0.00227 2.47 0.00298 4.94 0.00195 7.42 0.00921 1.13 0.0184 2.27 0.0279 3.44-0.0575 10.1-1.36 20.3-7.39 28.7-0.851 1.2-0.851 1.2-1.72 2.43-7.65 10.2-16.7 15.5-29.3 17.6-14.6 0.877-28.4-0.0814-40-10-9-8.51-14.3-18.5-15.2-31-0.0938-3.39-0.127-6.77-0.134-10.2-0.00666-1.24-0.0133-2.49-0.0202-3.77-0.0101-2.62-0.0148-5.24-0.0145-7.87 2.43e-4 -3.98-0.0407-7.96-0.0786-11.9-0.00587-2.56-0.00984-5.12-0.0117-7.68-0.0144-1.17-0.0287-2.35-0.0435-3.56 0.0727-13.4 3.9-26.2 13-36.2 8.86-8.34 19-12 30.9-13.1zm-17.7 26.1c-5.13 6.14-7.85 13.2-7.93 21.2-0.0128 1.01-0.0257 2.01-0.0389 3.05-0.00739 1.08-0.0148 2.16-0.0224 3.28-0.00807 1.12-0.0161 2.24-0.0245 3.4-0.0138 2.38-0.0246 4.76-0.0324 7.13-0.0115 2.42-0.0319 4.84-0.0615 7.26-0.0429 3.51-0.0589 7.01-0.0691 10.5-0.0175 1.07-0.035 2.14-0.0531 3.24 0.0266 9.34 2 18.6 8.66 25.6 6.68 5.51 14.2 7.91 22.8 7.5 7.13-1.12 13.7-4.11 19-9 4.26-5.85 6.1-11.2 6.18-18.4 0.0128-1.09 0.0257-2.18 0.0389-3.3 0.00739-1.17 0.0148-2.35 0.0224-3.55 0.00807-1.21 0.0161-2.43 0.0245-3.68 0.0138-2.57 0.0246-5.14 0.0324-7.71 0.0172-3.91 0.0611-7.82 0.105-11.7 0.0101-2.5 0.0186-5 0.0254-7.5 0.0175-1.16 0.035-2.32 0.0531-3.52-0.0255-9.64-2.06-17.9-8.77-25.1-6.16-5.3-13.3-6.82-21.2-6.68-7.43 0.625-13.3 2.95-18.7 8.11z" fill="#000100"/>
<path transform="translate(727,289)" d="m0 0h16c3.69 8.68 7.05 17.4 10.2 26.3 3.28 9.05 6.63 18.1 10.2 27 4.25 10.7 8.19 21.5 12.1 32.4 3.45 9.56 6.97 19.1 10.6 28.6 2.22 5.85 4.12 11.7 5.85 17.7h-19c-4.07-9.16-7.53-18.6-11-28h-53c-4.3 10.3-4.3 10.3-8.31 20.8-1.33 3.59-1.33 3.59-2.69 7.25h-19c0.812-4.06 1.81-7.55 3.19-11.4 0.218-0.616 0.437-1.23 0.662-1.87 0.713-2.01 1.43-4.01 2.15-6.02 0.499-1.4 0.998-2.8 1.5-4.2 3.71-10.4 7.54-20.7 11.4-31 1.95-5.16 3.85-10.3 5.75-15.5 1.95-5.33 3.97-10.6 6.12-15.9 3.47-8.56 6.52-17.3 9.59-26 2.39-6.76 4.89-13.4 7.6-20.1zm8 26c-4.77 10.7-8.44 21.8-12.2 32.9-0.634 1.87-1.27 3.74-1.9 5.61-2.32 6.83-4.63 13.7-6.91 20.5 1.21 1.44 1.21 1.44 4.79 1.11 1.69-1.59e-4 3.37-0.00586 5.06-0.0159 0.886-0.00141 1.77-0.00283 2.69-0.00429 2.84-0.00562 5.69-0.0182 8.53-0.0309 1.92-0.00501 3.85-0.00958 5.77-0.0137 4.72-0.0111 9.45-0.0283 14.2-0.0488 1.44-4.33-0.296-7.56-1.75-11.7-0.298-0.868-0.596-1.74-0.903-2.63-0.96-2.79-1.93-5.57-2.91-8.36-0.629-1.83-1.26-3.65-1.88-5.48-3.68-10.7-7.52-21.3-11.6-31.8h-1z" fill="#000100"/>
<path transform="translate(1060 289)" d="m0 0c1.49 0.00667 2.98 0.0186 4.46 0.0352 0.759 0.00451 1.52 0.00902 2.3 0.0137 1.88 0.0118 3.76 0.0298 5.64 0.0488 0.315 0.851 0.631 1.7 0.955 2.58 9.22 24.9 18.5 49.7 27.9 74.6 3.44 9.15 6.86 18.3 10.3 27.5 0.43 1.16 0.859 2.32 1.3 3.51 2.93 7.93 5.82 15.9 8.64 23.9h-20c-0.543-1.52-1.09-3.04-1.64-4.6-0.722-2.01-1.45-4.02-2.17-6.02-0.356-0.999-0.713-2-1.08-3.03-0.351-0.973-0.703-1.95-1.06-2.95-0.319-0.89-0.639-1.78-0.968-2.7-1.18-2.98-2.64-5.84-4.07-8.7h-53c-5.15 13.9-5.15 13.9-10 28h-20c2.19-7.62 4.77-15 7.56-22.4 0.902-2.42 1.8-4.84 2.71-7.25 0.457-1.22 0.914-2.44 1.39-3.7 1.25-3.35 2.49-6.71 3.73-10.1 5.07-13.8 10.2-27.5 15.4-41.2 4.73-12.4 9.36-24.9 13.9-37.5 0.421-1.16 0.842-2.32 1.28-3.51 0.366-1.02 0.733-2.03 1.11-3.08 1.42-3.6 1.31-3.26 5.5-3.38zm3.4 26.1c-3.13 7.51-5.78 15.1-8.31 22.9-3.1 9.42-6.27 18.8-9.66 28.1-1.57 4.39-1.57 4.39-2.03 9h41c1.25-1.96 1.25-1.96 0.462-4.11-0.312-0.875-0.625-1.75-0.946-2.65-0.353-1-0.707-2.01-1.07-3.04-0.592-1.65-0.592-1.65-1.2-3.33-0.827-2.34-1.65-4.69-2.48-7.03-0.329-0.929-0.329-0.929-0.665-1.88-2.52-7.12-4.97-14.3-7.42-21.4-0.974-2.84-1.95-5.68-2.92-8.52-0.919-2.68-1.84-5.35-2.76-8.03h-2z" fill="#000100"/>
<path transform="translate(918 101)" d="m0 0c9.15 7.74 14.1 16.7 17.5 28.1v2h-19l-2-4.56c-3.34-6.63-7.93-11.3-14.8-14.4-6.94-2.18-14.5-2.14-21.2 0.688-7.58 3.96-10.8 8.41-14.1 16.2-0.935 3.1-1.14 5.91-1.18 9.14-0.0128 1.03-0.0257 2.05-0.0389 3.11-0.00739 1.1-0.0148 2.21-0.0224 3.35-0.00807 1.14-0.0161 2.29-0.0245 3.47-0.0138 2.43-0.0246 4.85-0.0324 7.28-0.0115 2.47-0.0319 4.94-0.0615 7.4-0.0429 3.58-0.0589 7.15-0.0691 10.7-0.0175 1.09-0.035 2.18-0.0531 3.3 0.0264 9.45 1.96 18.8 8.74 25.8 6.47 5.35 13.1 6.08 21.4 5.83 6.93-0.801 12.3-3.66 17.4-8.39 0.947-2.06 1.84-4.15 2.69-6.25 1.73-3.22 1.73-3.22 4.31-5.75 5.84-1.55 12.1-0.677 18 0-2.24 13.5-8.42 23.7-19.4 31.8-12.1 7.85-27.5 9.51-41.6 7.22-5.52-1.85-9.69-5.19-14-9-0.795-0.646-1.59-1.29-2.41-1.96-9.28-8.24-13.7-20.9-14.9-33-0.117-3.01-0.152-6.01-0.143-9.02-0.00524-1.1-0.0105-2.2-0.0159-3.33-0.00638-2.31-0.00514-4.62 0.00343-6.93 0.00849-3.48-0.0203-6.97-0.052-10.5-0.0575-18 0.694-34.8 13.7-48.6 16.4-15.4 43.1-17.7 61.3-3.79z" fill="#000100"/>
<path transform="translate(1221,287)" d="m0 0c0.86 0.0812 1.72 0.162 2.61 0.246 11.8 1.61 21.5 7.96 29.4 16.8 4.66 6.7 9 13.7 9 22-12.6 1.19-12.6 1.19-18 0-2.58-2.27-3.46-4.18-4.8-7.32-2.47-5.5-7.58-9.21-13-11.6-7.73-2.42-15.6-1.78-22.9 1.56-7.73 4.66-11 11.9-13.3 20.4-0.505 3.97-0.54 7.88-0.496 11.9-0.00146 1.09-0.00291 2.19-0.00441 3.31 0.00165 2.29 0.0131 4.59 0.034 6.88 0.029 3.49 0.0206 6.97 0.00757 10.5 0.00624 2.24 0.0146 4.48 0.0254 6.72-0.00294 1.03-0.00587 2.06-0.0089 3.12 0.119 9.23 1.7 17.6 7.63 24.9 5.58 5.42 11.9 7.43 19.5 8.07 7.94-0.15 14.8-3.91 20.6-9.23 3.1-3.66 4.84-7.71 6.76-12.1h19c-3.09 13.9-9.99 25.7-22.3 33.5-11.7 6.36-28 8.64-41 4.8-11.5-4.78-20.4-14.2-25.7-25.3-3.46-9.05-4.16-17.9-4.2-27.5-0.0057-1-0.0114-2-0.0173-3.03-0.00942-2.11-0.016-4.22-0.0198-6.34-0.00966-3.19-0.0407-6.38-0.0723-9.56-0.0957-18.1 1.04-36.2 14.1-50.1 10.4-9.28 23.2-13.9 37.2-12.5z" fill="#000100"/>
<path transform="translate(549,289)" d="m0 0h94v17h-38v115h-18v-115h-38v-17z" fill="#000100"/>
<path transform="translate(1326,289)" d="m0 0h18v132h-18v-132z" fill="#000100"/>
<path transform="translate(756,94)" d="m0 0h18v132h-18v-132z" fill="#000100"/>
</svg>
