<?xml version="1.0" encoding="UTF-8"?>
<svg version="1.1" viewBox="0 0 1600 1600" xmlns="http://www.w3.org/2000/svg">
<path transform="translate(0)" d="m0 0h1600v1600h-1600v-1600z" fill="#FCFEFE"/>
<path transform="translate(616 568)" d="m0 0c5.35-0.0112 10.7-0.0459 16-0.0852 4.14-0.026 8.28-0.0345 12.4-0.0381 1.97-0.00487 3.95-0.0165 5.92-0.035 2.73-0.0242 5.47-0.0235 8.2-0.0165 0.81-0.0128 1.62-0.0256 2.46-0.0388 5.45 0.051 5.45 0.051 7.88 2.33 1.49 3.07 2.59 6.22 3.62 9.46 0.235 0.717 0.47 1.43 0.712 2.17 0.505 1.54 1.01 3.09 1.5 4.63 1.33 4.1 2.68 8.2 4.03 12.3 0.271 0.824 0.542 1.65 0.821 2.5 2.38 7.21 4.91 14.4 7.5 21.5 3.45 9.54 6.75 19.1 9.94 28.8 6.82 20.6 14 41.1 21.2 61.6 6.4 18.2 12.7 36.4 18.9 54.7 1.16 3.41 2.32 6.82 3.48 10.2 0.445 1.31 0.445 1.31 0.899 2.64 4.71 13.8 9.49 27.6 14.3 41.4 4.23 12.1 8.43 24.2 12.6 36.3 0.239 0.697 0.479 1.39 0.725 2.11 2.39 6.97 4.78 13.9 7.17 20.9 1.12 3.26 2.24 6.53 3.35 9.79 0.218 0.636 0.436 1.27 0.661 1.93 3.64 10.6 7.37 21.2 11.2 31.7 2.83 7.85 5.5 15.7 8.11 23.7 4.16 12.6 8.49 25.1 12.9 37.6 4.36 12.4 8.7 24.9 12.9 37.4 0.371 1.1 0.743 2.21 1.13 3.35 0.329 0.99 0.657 1.98 0.996 3 0.282 0.847 0.563 1.69 0.853 2.57 0.588 2.02 0.588 2.02 0.588 4.02-12.5 0.116-24.9 0.205-37.4 0.259-5.79 0.0261-11.6 0.0616-17.4 0.118-5.58 0.0542-11.2 0.0842-16.7 0.0972-2.13 0.00926-4.27 0.0273-6.4 0.0543-2.98 0.0362-5.96 0.0413-8.94 0.039-0.887 0.018-1.77 0.036-2.69 0.0545-2.26-0.0192-4.27-0.0761-6.47-0.622-1.99-2.33-1.99-2.33-3-5-0.408-1.07-0.816-2.14-1.24-3.24-0.606-1.84-0.606-1.84-1.23-3.72-0.227-0.683-0.453-1.37-0.687-2.07-0.748-2.26-1.49-4.52-2.23-6.79-0.527-1.6-1.05-3.2-1.58-4.8-4.53-13.7-8.98-27.5-13.4-41.2-3.92-12.1-7.91-24.2-12-36.3-0.55-1.64-1.1-3.27-1.64-4.91l-144 1c-1.45 3.63-2.24 5.64-2.64 9.27-0.147 1.22-0.147 1.22-0.296 2.46-0.103 0.87-0.207 1.74-0.313 2.64-4.19 31.8-15.2 61.6-36.8 85.6-0.736 0.848-1.47 1.7-2.23 2.57-27.9 30.1-73.1 38.7-112 40.6-56.1 1.95-108-11.6-150-50.2-1-0.901-1-0.901-2.02-1.82-9.57-9.01-20.4-22.3-24-35.2 0.965-2.43 0.965-2.43 3-5 0.423-0.548 0.847-1.1 1.28-1.66 1.52-1.95 3.08-3.86 4.65-5.78 0.574-0.703 1.15-1.41 1.74-2.13 4.23-5.16 8.57-10.2 12.9-15.3 3.43-3.98 6.72-8.06 9.95-12.2 3.68-4.74 7.44-9.41 11.3-14 0.44-0.524 0.881-1.05 1.33-1.59 8.22-9.67 8.22-9.67 14.8-11.3 4.01 3.46 5.94 7.41 8.25 12.1 11.9 23 31.2 43.2 56 52.1 0.904 0.289 1.81 0.578 2.74 0.875 1.08 0.371 2.16 0.742 3.27 1.12 10 3.07 20 3.25 30.4 3.25 0.711 0.00181 1.42 0.00363 2.15 0.00549 2.06-5.94e-4 4.11-0.0186 6.17-0.0446 1.2-0.015 2.4-0.03 3.64-0.0454 3.47-0.301 6.17-0.863 9.35-2.29 1.37-1.58 1.37-1.58 2.03-3.66 0.313-0.81 0.626-1.62 0.949-2.45 0.507-1.43 0.507-1.43 1.02-2.89 0.414-1.12 0.828-2.24 1.25-3.39 1.48-4.02 2.89-8.06 4.31-12.1 0.534-1.52 1.07-3.04 1.6-4.56 3.69-10.5 7.25-21.1 10.7-31.7 2.95-8.96 6.03-17.9 9.21-26.8 0.357-0.998 0.714-2 1.08-3.03 1.77-4.93 3.54-9.86 5.33-14.8 5.84-16.2 10.6-31.3 10.6-48.6 0.00529-1.65 0.00529-1.65 0.0107-3.33 0.0107-3.68 0.0144-7.35 0.0181-11 0.00631-2.64 0.013-5.28 0.0203-7.91 0.0149-5.68 0.0265-11.4 0.0359-17 0.0139-8.21 0.0351-16.4 0.0584-24.6 0.0379-13.3 0.0729-26.7 0.105-40 0.00285-1.2 0.00285-1.2 0.00576-2.42 0.0269-11.3 0.0507-22.7 0.0734-34 0.0016-0.799 0.00319-1.6 0.00484-2.42 0.00159-0.798 0.00319-1.6 0.00483-2.42 0.0267-13.3 0.0611-26.6 0.102-39.8 0.0248-8.19 0.0431-16.4 0.0532-24.6 0.00824-6.27 0.0267-12.5 0.0491-18.8 0.00751-2.58 0.0116-5.16 0.012-7.73 0.00107-3.5 0.0142-7.01 0.0306-10.5-0.00262-1.03-0.00523-2.06-0.00793-3.13 0.0103-1.4 0.0103-1.4 0.0208-2.83 0.00174-0.81 0.00347-1.62 0.00526-2.45 0.254-1.96 0.254-1.96 2.25-3.96 2.85-0.213 5.61-0.301 8.46-0.303 0.877-0.00844 1.75-0.0169 2.66-0.0256 2.92-0.0259 5.84-0.038 8.76-0.0504 2.04-0.0162 4.09-0.0334 6.13-0.0515 5.41-0.0458 10.8-0.0805 16.2-0.112 9.6-0.0578 19.2-0.134 28.8-0.211 1.04-8e-3 2.07-0.016 3.14-0.0242 10.8-0.0856 21.6-0.192 32.4-0.73 17.8-0.876 35.6-0.754 53.5-0.787z" fill="#191B1C"/>
<path transform="translate(608 666)" d="m0 0c6.76 3.5 9.51 20.2 11.9 27.4 0.296 0.869 0.591 1.74 0.896 2.63 8.53 25.1 16.7 50.3 24.9 75.5 1.38 4.23 2.76 8.45 4.13 12.7 4.7 14.4 9.39 28.8 14 43.2 0.238 0.74 0.476 1.48 0.722 2.24 1.1 3.43 2.2 6.86 3.3 10.3 0.375 1.17 0.75 2.34 1.14 3.54 0.325 1.01 0.649 2.03 0.984 3.07 0.741 2.37 0.741 2.37 1.81 4.39-15.5-0.0838-31-0.179-46.4-0.288-7.19-0.0502-14.4-0.0966-21.6-0.134-6.26-0.0329-12.5-0.0727-18.8-0.121-3.32-0.0253-6.64-0.046-9.95-0.0606-3.7-0.0168-7.4-0.0458-11.1-0.0778-1.11-0.00216-2.21-0.00432-3.35-0.00655-1-0.0112-2.01-0.0223-3.04-0.0338-0.876-0.00553-1.75-0.0111-2.65-0.0168-2.1-0.262-2.1-0.262-4.1-2.26-1.77-15 2.21-30.1 6.88-44.2 0.494-1.53 0.988-3.06 1.48-4.59 1.53-4.73 3.08-9.44 4.65-14.2 0.239-0.721 0.479-1.44 0.725-2.19 2.13-6.42 4.28-12.8 6.44-19.3 4.1-12.2 8.02-24.5 11.9-36.7 9.83-30.9 9.83-30.9 14.7-45.2 0.382-1.16 0.763-2.31 1.16-3.51 0.533-1.56 0.533-1.56 1.08-3.14 0.296-0.876 0.592-1.75 0.897-2.65 1.6-3.33 3.26-6.35 7.25-6.29z" fill="#FCFEFE"/>
<path transform="translate(1267 739)" d="m0 0c7.92 6.5 13.4 14.4 15 24.6 0.869 13.3 1.57 27.6-7.25 38.5-8.31 8.38-16.6 10.5-28.1 10.8-12.3-0.22-21.8-3.25-30.5-12.2-7.07-8.72-9.05-20.1-8.15-31.1 1.7-11.4 4.94-21.3 14.2-28.5 5.01-3.34 9.86-5.33 15.8-6.5 0.926-0.2 1.85-0.4 2.8-0.605 8.52-1.05 19 0.274 26.2 5z" fill="#191B1C"/>
<path transform="translate(977 735)" d="m0 0c1.22-0.00133 1.22-0.00133 2.46-0.00269 0.866 0.0176 1.73 0.0353 2.62 0.0535 0.89 0.0106 1.78 0.0211 2.7 0.032 26.5 0.522 26.5 0.522 33.8 6.71 4.73 4.96 7.17 10.5 7.39 17.4-0.391 7.2-2.41 11.2-7.22 16.6-1.88 1.62-1.88 1.62-3.88 1.62 0.506 4.72 1.71 7.57 4.44 11.4 1.07 1.54 1.07 1.54 2.15 3.11 0.385 0.55 0.771 1.1 1.17 1.67 2.28 3.28 4.51 6.59 6.74 9.91 0.445 0.652 0.891 1.3 1.35 1.97 3.15 4.67 3.15 4.67 3.15 6.9-3.58 0.145-7.17 0.234-10.8 0.312-1.02 0.0419-2.03 0.0838-3.08 0.127-7.48 0.123-7.48 0.123-10.5-2.32-0.83-1.54-0.83-1.54-1.68-3.12-0.967-1.6-1.94-3.2-2.91-4.79-1.59-2.72-3.18-5.44-4.76-8.17-0.514-0.873-1.03-1.75-1.56-2.65-0.462-0.796-0.923-1.59-1.4-2.41-1.39-2.25-1.39-2.25-4.38-3.98-3.38 3.38-2.35 13.4-2.56 17.9-0.0432 0.875-0.0864 1.75-0.131 2.65-0.105 2.14-0.206 4.27-0.307 6.41-3.31 0.0289-6.62 0.0468-9.94 0.0625-0.946 0.00838-1.89 0.0168-2.87 0.0254-1.35 0.00483-1.35 0.00483-2.72 0.00977-0.833 0.00524-1.67 0.0105-2.52 0.0159-1.95-0.114-1.95-0.114-2.95-1.11-0.099-1.77-0.128-3.54-0.129-5.31-0.00315-1.14-0.0063-2.27-0.00955-3.44 0.00304-1.86 0.00304-1.86 0.00613-3.76-9.57e-4 -1.27-0.00191-2.55-0.0029-3.86-0.00148-2.71 6.79e-4 -5.43 0.00534-8.14 0.00562-3.44 0.00247-6.87-0.00357-10.3-0.00455-3.31-0.00133-6.63 0.00113-9.94-0.00202-1.22-0.00405-2.43-0.00613-3.68 0.0163-6.09 0.149-12.2 0.46-18.3 0.0568-1.14 0.114-2.27 0.172-3.44 0.844-4.75 2.92-6.24 7.61-6.22z" fill="#191B1C"/>
<path transform="translate(916 735)" d="m0 0c2.37 0.00542 4.74-3.33e-6 7.12-0.00635 1.51 6.6e-4 3.01 0.00194 4.52 0.00391 1.07-0.00304 1.07-0.00304 2.15-0.00613 4.95 0.024 4.95 0.024 6.07 1.14 0.0733 2.86 0.0924 5.7 0.0625 8.56-0.00451 0.806-0.00902 1.61-0.0137 2.44-0.0118 2-0.0298 4-0.0488 5.99-1.84-0.0348-1.84-0.0348-3.73-0.0703-1.63-0.0188-3.27-0.037-4.9-0.0547-0.808-0.0168-1.62-0.0335-2.45-0.0508-4.73-0.0384-8.48 0.348-12.9 2.18v8c0.59 0.0198 1.18 0.0396 1.79 0.0601 2.68 0.0953 5.35 0.205 8.02 0.315 0.929 0.0309 1.86 0.0619 2.81 0.0938 0.893 0.0387 1.79 0.0773 2.71 0.117 0.822 0.0314 1.64 0.0628 2.49 0.0952 2.18 0.319 2.18 0.319 5.18 2.32-0.495 0.495-0.495 0.495-1 1-0.235 2.35-0.414 4.71-0.562 7.06-0.0838 1.29-0.168 2.58-0.254 3.91-0.0909 1.5-0.0909 1.5-0.184 3.03-0.601 0.0251-1.2 0.0501-1.82 0.0759-2.71 0.116-5.41 0.239-8.12 0.362-1.42 0.059-1.42 0.059-2.87 0.119-0.899 0.0419-1.8 0.0838-2.72 0.127-1.25 0.055-1.25 0.055-2.52 0.111-1.95-0.00101-1.95-0.00101-2.95 1.21-0.0982 1.66-0.13 3.33-0.125 5-0.00258 0.908-0.00516 1.82-0.00781 2.75-0.119 2.22-0.119 2.22 1.13 3.25 1.62 0.0749 3.25 0.0832 4.88 0.0625 0.985-0.00773 1.97-0.0155 2.98-0.0234 1.55-0.0193 1.55-0.0193 3.14-0.0391 2.04-0.0254 4.08-0.0465 6.12-0.0625 0.91-0.0116 1.82-0.0232 2.76-0.0352 2.12 0.0977 2.12 0.0977 3.12 1.1 0.0733 2.86 0.0924 5.7 0.0625 8.56-0.00451 0.806-0.00902 1.61-0.0137 2.44-0.0118 2-0.0298 4-0.0488 5.99-6.39 0.0253-12.8 0.0428-19.2 0.0549-2.18 0.00504-4.35 0.0119-6.53 0.0205-3.12 0.0121-6.24 0.0178-9.36 0.0222-1.47 0.00774-1.47 0.00774-2.97 0.0156-0.901 7.55e-5 -1.8 1.51e-4 -2.73 2.29e-4 -1.2 0.00333-1.2 0.00333-2.42 0.00673-1.83-0.12-1.83-0.12-2.83-1.12-0.105-2.26-0.139-4.52-0.145-6.78-0.00504-1.06-0.00504-1.06-0.0102-2.15-0.00954-2.35-0.0115-4.71-0.0125-7.06-0.00321-1.63-0.00657-3.26-0.0101-4.89-6e-3 -3.42-0.00784-6.84-0.00725-10.3 1.02e-4 -4.39-0.0136-8.79-0.0308-13.2-0.0111-3.37-0.0131-6.74-0.0126-10.1-0.00118-1.62-0.00562-3.24-0.0133-4.86-0.00976-2.26-0.00694-4.53-8.95e-4 -6.79-0.00143-1.29-0.00285-2.58-0.00432-3.91 0.247-3.01 0.247-3.01 2.25-5.01 7.97-1.39 16.1-1.15 24.2-1.13z" fill="#191B1C"/>
<path transform="translate(1175,738)" d="m0 0c1.79 1.61 1.79 1.61 3 3-0.453 1.75-0.913 3.5-1.38 5.25-0.383 1.46-0.383 1.46-0.773 2.95-0.748 2.46-1.62 4.55-2.85 6.8-2.85-0.518-5.49-1.16-8.25-2.06-5.61-1.4-10.4-1.57-16-0.0625-5.31 4.1-7.73 10.6-8.75 17.1-0.456 6.73-0.0445 14.3 4.39 19.7 4.65 4.08 8.37 4.51 14.4 4.46 3.08-0.233 5.97-0.934 8.94-1.73 2.27-0.438 2.27-0.438 8.27-0.438l-1 16c-10.3 4.42-22.9 6.18-33.9 2.94-9.22-3.79-16.4-9.75-20.2-18.9-4.39-11.2-4.41-24.1-0.0742-35.3 4.57-9.73 10.3-16.2 20.2-20.6 10.7-3.81 23.6-3.78 34.1 0.875z" fill="#191B1C"/>
<path transform="translate(853,737)" d="m0 0c0.297 2.47 0.399 4.68 0.372 7.15 0.00365 0.737 0.0073 1.47 0.0111 2.23 0.00813 2.45-0.00553 4.89-0.0201 7.34-5.19e-4 1.7-6.4e-7 3.4 0.00151 5.11-8.99e-5 3.58-0.0105 7.15-0.0286 10.7-0.0226 4.56-0.0233 9.13-0.0165 13.7 0.00336 3.52-0.00333 7.04-0.0131 10.6-0.00383 1.68-0.00501 3.36-0.00341 5.04 0.00354 22.3 0.00354 22.3-5.68 29.6-6.22 6.01-13.3 7.71-21.6 7.76-1.83 0.0213-1.83 0.0213-3.69 0.043-3.08-0.215-4.74-0.603-7.31-2.23-0.0539-2.12-0.0927-4.25-0.125-6.38-0.0232-1.18-0.0464-2.37-0.0703-3.59 0.195-3.04 0.195-3.04 2.2-5.04 3.09-0.346 6.15-0.443 9.25-0.559 1.36-0.218 1.36-0.218 2.75-0.441 2.4-3.6 2.29-6.22 2.29-10.4 0.0102-1.12 0.0102-1.12 0.0207-2.27 0.0136-1.62 0.0226-3.25 0.0277-4.87 0.00828-2.57 0.0288-5.13 0.0525-7.7 0.0564-6.37 0.0917-12.7 0.128-19.1 0.0312-5.39 0.0703-10.8 0.12-16.2 0.0201-2.53 0.0284-5.07 0.0363-7.6 0.013-1.55 0.0265-3.09 0.0406-4.64-9.82e-4 -0.708-0.00196-1.42-0.00298-2.15 0.0624-4.87 0.0624-4.87 2.29-7.1 2.68-0.361 5.25-0.603 7.94-0.75 1.09-0.0831 1.09-0.0831 2.21-0.168 3.9-0.236 5.52-0.304 8.85 1.92z" fill="#191B1C"/>
<path transform="translate(1351,826)" d="m0 0c6.78 6.14 8.74 12.8 9.19 21.8-0.19 8.29-1.29 14.6-7.29 20.6-6.14 5.28-12.3 5.21-20.2 5.04-6.76-0.749-12.2-3.33-16.7-8.41-4.74-7.1-5.91-15.3-4.38-23.7 1.98-7.39 6.09-13 12.4-17.3 8.86-3.65 18.9-3.36 27 2z" fill="#191B1C"/>
<path transform="translate(1065 822)" d="m0 0c0.741 0.0155 1.48 0.0309 2.25 0.0469 0.764 0.067 1.53 0.134 2.32 0.203 1.24 0.029 1.24 0.029 2.51 0.0586 3.9 1.47 5.12 4.73 6.93 8.25 0.58 1.08 0.58 1.08 1.17 2.17 2.86 5.34 5.54 10.8 8.1 16.3 1.23 2.54 1.23 2.54 4.29 4.26-0.161-1.1-0.322-2.19-0.488-3.32-0.646-5.19-0.696-10.3-0.699-15.6-0.0122-0.949-0.0245-1.9-0.0371-2.88-0.00193-0.905-0.00387-1.81-0.00586-2.74-0.00411-0.818-0.00822-1.64-0.0125-2.48 0.243-2.03 0.243-2.03 2.24-4.03 2.35-0.23 2.35-0.23 5.06-0.188 1.35 0.00967 1.35 0.00967 2.72 0.0195 2.21 0.168 2.21 0.168 3.21 1.17 0.101 2.67 0.14 5.32 0.133 7.99 9.57e-4 0.814 0.00191 1.63 0.0029 2.47 6.83e-4 1.73-0.00118 3.47-0.00534 5.2-0.00527 2.61-9.77e-5 5.22 0.00635 7.83 0.00319 8.89-0.156 17.7-1.14 26.5-2.23 0.0814-4.46 0.139-6.69 0.188-1.86 0.0522-1.86 0.0522-3.76 0.105-3.95-0.326-5.41-0.941-8.55-3.29-1.94-2.91-1.94-2.91-3.77-6.42-0.326-0.617-0.652-1.23-0.987-1.87-1.03-1.96-2.04-3.93-3.06-5.9-0.699-1.34-1.4-2.67-2.1-4.01-1.71-3.26-3.4-6.53-5.09-9.81l-1 31c-10 0-10 0-12-1-0.101-6.64-0.171-13.3-0.22-19.9-0.0201-2.26-0.0474-4.52-0.082-6.78-0.0484-3.24-0.0712-6.49-0.0889-9.73-0.031-1.52-0.031-1.52-0.0626-3.07-3.02e-4 -0.941-6.04e-4 -1.88-9.16e-4 -2.85-0.00888-0.828-0.0178-1.66-0.0269-2.51 0.481-2.15 0.481-2.15 2.37-3.92 2.42-1.41 3.77-1.58 6.55-1.48z" fill="#191B1C"/>
<path transform="translate(1077 735)" d="m0 0c1.15-0.00258 2.3-0.00516 3.48-0.00781 2.77 0.133 2.77 0.133 3.77 1.13 0.0949 2.37 0.126 4.72 0.114 7.09 1.46e-4 0.741 2.92e-4 1.48 4.43e-4 2.25-6.99e-4 2.46-0.00849 4.92-0.0163 7.39-0.00186 1.7-0.00329 3.41-0.00429 5.11-0.00383 4.49-0.0137 8.98-0.0247 13.5-0.0102 4.58-0.0148 9.16-0.0198 13.7-0.0107 8.99-0.0278 18-0.0488 27-3.31 0.0289-6.62 0.0468-9.94 0.0625-0.946 0.00838-1.89 0.0168-2.87 0.0254-1.35 0.00483-1.35 0.00483-2.72 0.00977-0.833 0.00524-1.67 0.0105-2.52 0.0159-1.95-0.114-1.95-0.114-2.95-1.11-0.105-2.26-0.139-4.52-0.145-6.78-0.00504-1.06-0.00504-1.06-0.0102-2.15-0.00954-2.35-0.0115-4.71-0.0125-7.06-0.00321-1.63-0.00657-3.26-0.0101-4.89-6e-3 -3.42-0.00784-6.84-0.00725-10.3 1.02e-4 -4.39-0.0136-8.79-0.0308-13.2-0.0111-3.37-0.0131-6.74-0.0126-10.1-0.00118-1.62-0.00562-3.24-0.0133-4.86-0.00976-2.26-0.00694-4.53-8.95e-4 -6.79-0.00143-1.29-0.00285-2.58-0.00432-3.91 0.247-3.01 0.247-3.01 2.25-5.01 3.91-1.1 7.7-1.13 11.8-1.12z" fill="#191B1C"/>
<path transform="translate(1015,822)" d="m0 0c2.83 6.08 5.19 12.2 7.23 18.6 0.424 1.31 0.424 1.31 0.857 2.64 0.59 1.82 1.18 3.64 1.76 5.46 0.9 2.8 1.81 5.59 2.72 8.39 0.575 1.78 1.15 3.55 1.72 5.33 0.272 0.836 0.544 1.67 0.824 2.53 1.88 5.86 1.88 5.86 1.88 8.09-2.29 0.0538-4.58 0.0927-6.88 0.125-1.28 0.0232-2.55 0.0464-3.87 0.0703-3.26-0.195-3.26-0.195-5.26-2.2-0.714-1.98-1.39-3.98-2-6-4.96-1.32-9.91-1.09-15-1l-2 9h-14c-1.31-2.63-0.749-3.44 0.124-6.2 0.271-0.868 0.541-1.74 0.82-2.63 0.302-0.94 0.604-1.88 0.915-2.85 0.305-0.964 0.61-1.93 0.924-2.92 0.649-2.04 1.3-4.09 1.96-6.13 1-3.12 1.99-6.25 2.97-9.38 0.632-1.98 1.26-3.97 1.9-5.95 0.441-1.4 0.441-1.4 0.891-2.83 0.283-0.874 0.567-1.75 0.858-2.65 0.245-0.767 0.49-1.53 0.743-2.32 1.01-2.39 2.2-4.18 3.9-6.14 2.02-0.609 2.02-0.609 4.25-0.75 0.788-0.0554 1.58-0.111 2.39-0.168 3.13-0.109 6.23-0.149 9.36-0.082z" fill="#191B1C"/>
<path transform="translate(1163,822)" d="m0 0c2.83 6.08 5.19 12.2 7.23 18.6 0.424 1.31 0.424 1.31 0.857 2.64 0.59 1.82 1.18 3.64 1.76 5.46 0.9 2.8 1.81 5.59 2.72 8.39 0.575 1.78 1.15 3.55 1.72 5.33 0.272 0.836 0.544 1.67 0.824 2.53 1.88 5.86 1.88 5.86 1.88 8.09-2.29 0.0538-4.58 0.0927-6.88 0.125-1.28 0.0232-2.55 0.0464-3.87 0.0703-3.26-0.195-3.26-0.195-5.26-2.2l-0.875-3.06-1.12-2.94c-3.17-1.26-6.37-1.1-9.75-1.06-1.48 0.0135-1.48 0.0135-2.98 0.0273-0.748 0.0116-1.5 0.0232-2.27 0.0352l-2 9c-1.94 0.0811-3.87 0.139-5.81 0.188-1.08 0.0348-2.16 0.0696-3.27 0.105-3.32-0.333-3.8-0.909-5.92-3.29 2-6.01 4-12 6.01-18 0.217-0.652 0.434-1.3 0.658-1.98 0.441-1.32 0.883-2.64 1.33-3.97 1.15-3.43 2.28-6.87 3.39-10.3 0.223-0.688 0.446-1.38 0.676-2.08 0.619-1.91 1.23-3.82 1.84-5.73 1.1-2.92 1.1-2.92 3.1-4.92 2.17-0.414 2.17-0.414 4.75-0.625 0.889-0.0735 1.78-0.147 2.7-0.223 2.86-0.17 5.69-0.228 8.55-0.152z" fill="#191B1C"/>
<path transform="translate(876 822)" d="m0 0c0.681-0.0245 1.36-0.049 2.06-0.0742 5.01-0.0295 5.01-0.0295 7.04 1.97 1.98 3.37 3.13 6.91 4.31 10.6 0.386 1.19 0.386 1.19 0.78 2.4 0.542 1.67 1.08 3.35 1.62 5.03 0.811 2.54 1.64 5.07 2.46 7.6 2.55 7.89 4.94 15.6 6.29 23.8-2.1 0.108-4.21 0.186-6.31 0.25-1.17 0.0464-2.34 0.0928-3.55 0.141-3.14-0.391-3.14-0.391-5.02-2.27-1.11-2.12-1.11-2.12-1.61-4.31l-0.5-1.81c-3.15-1.05-5.39-1.1-8.69-1.06-0.994 0.00902-1.99 0.018-3.01 0.0273-1.14 0.0174-1.14 0.0174-2.3 0.0352-0.99 2.64-1.98 5.28-3 8h-14c-1.24-3.71-0.597-4.91 0.66-8.57 0.568-1.68 0.568-1.68 1.15-3.39 0.414-1.19 0.828-2.38 1.25-3.61 0.836-2.45 1.67-4.9 2.51-7.34 0.414-1.2 0.828-2.41 1.25-3.65 1.04-3.05 2.05-6.1 3.04-9.16 0.269-0.829 0.539-1.66 0.816-2.51 0.492-1.52 0.98-3.04 1.46-4.56 2.26-6.91 4.35-7.57 11.3-7.58z" fill="#191B1C"/>
<path transform="translate(1251,752)" d="m0 0c4.9 2.61 7.08 6.96 9 12 2.28 9.24 1.83 19.1-3 27.4-2.35 3.01-3.03 3.44-6.76 3.91-5.79 0.269-10.2 0.451-14.9-3.28-3.78-3.96-4.91-7.69-5.31-13.1-0.0567-0.745-0.113-1.49-0.172-2.26-0.277-7.95 0.871-15.6 6.17-21.7 4.72-3.3 9.4-3.9 15-3z" fill="#FCFEFE"/>
<path transform="translate(1240,824)" d="m0 0c1.39 2.78 1.18 4.92 1 8-0.624 1.35-1.28 2.69-2 4-0.797-0.179-1.59-0.358-2.41-0.543-6.59-1.37-6.59-1.37-13.1-0.457-4.2 3.44-5.47 7.2-6.25 12.4-0.337 4.25 0.0428 7.62 1.81 11.6 4.21 3.03 10 2.29 15 2 1.67-0.307 3.34-0.626 5-1 1 1 1 1 1.1 3.07-0.0116 0.824-0.0232 1.65-0.0352 2.5-0.00902 0.826-0.018 1.65-0.0273 2.5-0.0116 0.638-0.0232 1.28-0.0352 1.93-7.21 4.18-15.5 4.42-23.5 2.34-5.79-2.6-9.74-7.24-12.8-12.7-2.38-9.08-2.01-17.6 2.64-26 7.6-10.7 21.4-15.4 33.7-9.6z" fill="#191B1C"/>
<path transform="translate(930 823)" d="m0 0c0.752 0.00719 1.5 0.0144 2.28 0.0218 0.772 4.58e-4 1.54 9.16e-4 2.34 0.00139 1.63 0.00302 3.26 0.0109 4.89 0.0233 2.51 0.0183 5.01 0.0205 7.52 0.0203 1.58 0.00491 3.17 0.0107 4.75 0.0176 1.13 0.00167 1.13 0.00167 2.29 0.00337 5.28 0.0485 5.28 0.0485 6.4 1.16 0.0721 1.69 0.0839 3.38 0.0625 5.06-0.00902 0.919-0.018 1.84-0.0273 2.79-0.0116 0.71-0.0232 1.42-0.0352 2.15-0.71 0.0606-1.42 0.121-2.15 0.184-0.919 0.0838-1.84 0.168-2.79 0.254-0.917 0.0812-1.83 0.162-2.78 0.246-2.25 0.0769-2.25 0.0769-3.29 1.32-0.16 2.66-0.259 5.31-0.316 7.97-0.0208 0.798-0.0416 1.6-0.063 2.42-0.0656 2.56-0.124 5.12-0.183 7.67-0.0432 1.73-0.0868 3.46-0.131 5.19-0.107 4.25-0.209 8.5-0.307 12.7-2.98 0.993-5.02 1.13-8.12 1.12-0.889 0.00258-1.78 0.00516-2.7 0.00781-2.18-0.133-2.18-0.133-3.18-1.13-0.16-2.74-0.259-5.45-0.316-8.19-0.0208-0.82-0.0416-1.64-0.063-2.48-0.0656-2.63-0.124-5.26-0.183-7.89-0.0432-1.78-0.0868-3.56-0.131-5.33-0.107-4.37-0.209-8.74-0.307-13.1-0.71-0.0606-1.42-0.121-2.15-0.184-0.919-0.0838-1.84-0.168-2.79-0.254-1.37-0.122-1.37-0.122-2.78-0.246-2.29-0.316-2.29-0.316-3.29-1.32-0.273-5.74-0.273-5.74 0-8 2.53-2.53 4.09-2.24 7.54-2.25z" fill="#191B1C"/>
<path transform="translate(1274 823)" d="m0 0c1.48 0.0213 1.48 0.0213 3 0.043 0.991 0.00645 1.98 0.0129 3 0.0195 2.43 0.168 2.43 0.168 3.43 1.17 0.0931 1.5 0.117 3.01 0.114 4.52-7.55e-5 0.961-1.51e-4 1.92-2.29e-4 2.91-0.00516 1.04-0.0103 2.09-0.0156 3.17-0.00141 1.06-0.00283 2.13-0.00429 3.22-0.00562 3.41-0.0182 6.83-0.0309 10.2-0.00501 2.31-0.00958 4.62-0.0137 6.92-0.0111 5.67-0.0278 11.3-0.0488 17-4.09 0.88-7.8 1.24-12 1-2.44-2.44-2.25-3.07-2.26-6.42-0.0063-0.914-0.0126-1.83-0.0191-2.77 0.00405-0.99 0.0081-1.98 0.0123-3-0.00191-1.01-0.00383-2.03-0.0058-3.07-0.00136-2.15 0.00234-4.29 0.0107-6.44 0.0107-3.29 1.07e-4 -6.58-0.0127-9.88 0.00132-2.08 0.00388-4.16 0.00781-6.24-0.00405-0.99-0.0081-1.98-0.0123-3 0.0063-0.914 0.0126-1.83 0.0191-2.77 0.00159-0.807 0.00318-1.61 0.00482-2.44 0.418-3.25 1.67-3.92 4.82-4.2z" fill="#191B1C"/>
<path transform="translate(1340,834)" d="m0 0c4.57 4.57 5.2 8.08 5.25 14.3 0.0258 1.32 0.0516 2.63 0.0781 3.99-0.34 3.84-0.997 5.68-3.33 8.7-3.15 1.57-5.52 1.35-9 1-4.21-2.46-6.18-4.43-7.56-9.12-0.922-5.61 0.26-10.7 2.56-15.9 3.57-3.47 7.15-3.71 12-3z" fill="#FCFEFE"/>
<path transform="translate(995 752)" d="m0 0c0.794 0.0889 1.59 0.178 2.41 0.27 1.19 0.114 1.19 0.114 2.41 0.23 2.09 0.582 2.09 0.582 4.09 3.58 0.301 2.16 0.301 2.16 0.312 4.5 0.0168 0.773 0.0335 1.55 0.0508 2.34-0.363 2.16-0.363 2.16-1.59 3.93-2.3 1.59-3.69 1.54-6.46 1.42-0.808-0.0271-1.62-0.0541-2.45-0.082-0.615-0.0348-1.23-0.0696-1.86-0.105-1.97-3.25-2.18-5.37-1.75-9.12 0.0877-0.869 0.175-1.74 0.266-2.63 0.643-2.98 1.43-4.2 4.58-4.32z" fill="#FCFEFE"/>
<path transform="translate(1154,836)" d="m0 0h3c0.205 1.06 0.41 2.12 0.621 3.21 0.272 1.39 0.544 2.78 0.816 4.16 0.135 0.699 0.269 1.4 0.408 2.12 0.732 3.86 0.732 3.86 2.15 7.51-1.48-0.14-2.96-0.288-4.44-0.438-0.824-0.0812-1.65-0.162-2.5-0.246-2.07-0.316-2.07-0.316-3.07-1.32 0.453-5.25 1.43-9.98 3-15z" fill="#FCFEFE"/>
<path transform="translate(1006,835)" d="m0 0h2c0.507 1.89 1.01 3.79 1.5 5.69 0.278 1.06 0.557 2.11 0.844 3.2 0.595 2.82 0.784 5.24 0.656 8.11h-7c-1.45-3.87-0.544-6.82 0.438-10.8 0.287-1.17 0.575-2.34 0.871-3.55 0.228-0.892 0.456-1.78 0.691-2.7z" fill="#FCFEFE"/>
<path transform="translate(877,835)" d="m0 0h1c0.504 2.27 1 4.54 1.5 6.81 0.278 1.26 0.557 2.53 0.844 3.83 0.656 3.36 0.656 3.36 0.656 6.36h-8c-1.3-3.91-0.377-5.73 0.875-9.62 0.369-1.17 0.737-2.34 1.12-3.54 1.01-2.84 1.01-2.84 2.01-3.84z" fill="#FCFEFE"/>
</svg>
